<?xml version="1.0" standalone="no"?><!DOCTYPE svg PUBLIC "-//W3C//DTD SVG 1.1//EN" "http://www.w3.org/Graphics/SVG/1.1/DTD/svg11.dtd"><svg width="100%" height="100%" viewBox="0 0 3226 3182" version="1.1" xmlns="http://www.w3.org/2000/svg" xmlns:xlink="http://www.w3.org/1999/xlink" xml:space="preserve" style="fill-rule:evenodd;clip-rule:evenodd;stroke-linejoin:round;stroke-miterlimit:1.41421;"><path d="M539.981,3049.68l-366.213,0l0,-366.21l366.213,0l0,366.21ZM1272.42,3049.68l-366.212,0l0,-366.21l366.212,0l0,366.21ZM3103.48,3049.68l-366.209,0l0,-366.21l366.209,0l0,366.21ZM2371.04,3049.68l-366.209,0l0,-366.21l366.209,0l0,366.21ZM2004.83,2683.47l-732.422,0l0,-366.212l732.422,0l0,366.212ZM906.2,2683.47l-366.21,0l0,-366.212l366.21,0l0,366.212ZM2737.26,2683.47l-366.212,0l0,-366.212l366.212,0l0,366.212ZM906.2,852.415l0,-366.21l366.212,0l0,-366.212l732.422,0l0,366.212l366.209,0l0,366.21l732.422,0l0,366.212l-366.209,0l0,366.21l366.209,0l0,366.212l-732.422,0l0,366.21l-366.209,0l0,-366.21l-732.422,0l0,366.21l-366.212,0l0,-366.21l-732.422,0l0,-366.212l366.212,0l0,-366.21l-366.212,0l0,-366.212l732.422,0ZM2371.04,1218.63l-366.209,0l0,366.21l366.209,0l0,-366.21ZM906.2,1218.63l0,366.21l366.212,0l0,-366.21l-366.212,0Z" style="fill:#ec008c;"/></svg>